#N canvas 571 82 1278 1041 10;
#X obj 49 81 pack 0 0 0, f 11;
#X obj 57 106 route 1 2 3 4 5 6 7 8, f 81;
#X text 24 19 basic polyphonic patch with 8 voices;
#X text 405 132 aircraft carrier;
#X obj 79 317 bng 15 250 50 0 empty empty empty 17 7 0 10 #fcfcfc #000000 #000000;
#N canvas 338 338 450 250 (subpatch) 0;
#X array up 12 float 3;
#A 0 0 0 2 0 1 2 0 2 0 2 0 1;
#X coords 0 3 12 0 200 140 1 0 0;
#X restore 578 37 graph;
#N canvas 338 338 450 250 (subpatch) 0;
#X array down 12 float 3;
#A 0 1 0 2 0 2 1 0 0 0 2 0 2;
#X coords 0 3 12 0 200 140 1 0 0;
#X restore 854 -35 graph;
#X obj 254 35 pack 0 0;
#X obj 266 -9 notein 1;
#X obj 126 181 voice 3;
#X obj 197 181 voice 4;
#X obj 265 186 voice 5;
#X obj 320 196 voice 6;
#X obj 387 197 voice 7;
#X obj 443 200 voice 8;
#X obj 501 200 voice 9;
#N canvas 208 208 450 250 (subpatch) 1;
#X text 0 0 plugdatainfo <?xml version="1.0" encoding="UTF-8"?> <PlugDataInfo/>;
#X coords 0 1 100 -1 15 15 1 0 0;
#X restore 0 0 graph;
#X obj 56 180;
#X obj 55 213 voice 2;
#X obj 983 935 bendout 1;
#X obj 51 57 poly 8, f 11;
#X obj -13 245 bng 25 250 50 0 empty empty empty 17 7 0 10 #e4e4e4 #5a5a5a #5a5a5a;
#X connect 0 0 1 0;
#X connect 1 0 18 0;
#X connect 1 1 9 0;
#X connect 1 2 10 0;
#X connect 1 3 11 0;
#X connect 1 4 12 0;
#X connect 1 5 13 0;
#X connect 1 6 14 0;
#X connect 1 7 15 0;
#X connect 7 0 20 0;
#X connect 7 0 4 0;
#X connect 8 0 7 0;
#X connect 8 0 21 0;
#X connect 8 1 7 1;
#X connect 20 0 0 0;
#X connect 20 1 0 1;
#X connect 20 2 0 2;
