#N canvas 827 239 527 327 12;
#X obj 404 11 adc~;
#X obj 353 466 dac~;
#X obj 404 127 delay~ 22050 14700;
#X obj 378 373 bp~ 440 5;
#X obj 438 150 delay~ 22050 14700;
#X obj 454 410 bp~ 660 5;
#X obj 245 73 nbx 4 18 -1e+37 1e+37 0 0 empty empty empty 0 -8 0 10 #e4e4e4 #5a5a5a #5a5a5a 0 256;
#X obj 542 223 delay~ 22050 14700;
#X obj 472 448 bp~ 1320 5;
#X obj 407 56 *~ 1;
#X obj 489 25 nbx 4 18 -1e+37 1e+37 0 0 empty empty empty 0 -8 0 10 #e4e4e4 #5a5a5a #5a5a5a 0 256;
#X connect 0 0 9 0 empty;
#X connect 0 1 9 0 empty;
#X connect 2 0 3 0 empty;
#X connect 2 0 4 0 empty;
#X connect 3 0 1 0 empty;
#X connect 3 0 1 1 empty;
#X connect 4 0 5 0 empty;
#X connect 4 0 7 0 empty;
#X connect 5 0 1 1 empty;
#X connect 5 0 1 0 empty;
#X connect 6 0 3 2 empty;
#X connect 6 0 5 2 empty;
#X connect 6 0 8 2 empty;
#X connect 7 0 8 0 empty;
#X connect 8 0 1 1 empty;
#X connect 8 0 1 0 empty;
#X connect 9 0 2 0 empty;
#X connect 10 0 9 1 empty;
