#N canvas 43 154 674 712 10;
#X obj 58 16 vsl 15 96 0 1 0 0 knob1 knob1 empty 0 -9 0 10 #fcfcfc
#000000 #000000 0 1;
#X obj 84 21 vsl 15 96 0 1 0 0 knob2 knob2 empty 0 -9 0 10 #fcfcfc
#000000 #000000 0 1;
#X obj 110 22 vsl 15 96 0 1 0 0 knob3 knob3 empty 0 -9 0 10 #fcfcfc
#000000 #000000 0 1;
#X obj 136 22 vsl 15 96 0 1 0 0 knob4 knob4 empty 0 -9 0 10 #fcfcfc
#000000 #000000 0 1;
#X obj 207 23 vsl 15 96 0 1 0 0 exp exp empty 0 -9 0 10 #fcfcfc #000000
#000000 0 1;
#X obj 6 178 tgl 15 0 aux aux empty 17 7 0 10 #fcfcfc #000000 #000000
0 1;
#X obj 238 97 tgl 15 0 fs fs empty 17 7 0 10 #fcfcfc #000000 #000000
0 1;
#N canvas 0 50 1360 725 audioIO 1;
#X obj 513 336 dac~;
#X obj 578 102 catch~ outR;
#X obj 484 104 catch~ outL;
#X obj 196 122 adc~, f 6;
#X obj 285 245 s~ inR;
#X obj 110 244 s~ inL;
#X obj 487 273 *~;
#X obj 576 275 *~;
#X obj 810 69 r vol;
#X obj 810 122 *;
#X obj 810 95 t f f;
#X obj 810 150 sig~;
#X obj 810 176 lop~ 2;
#X obj 482 179 clip~ -1 1;
#X obj 571 179 clip~ -1 1;
#X text 268 34 Receives and sends audio to patch. Outgoing audio is
run through a compressor to provide some headroom if things get too
loud. Also sends values to the Organelle's OLED VU meter.;
#X obj 742 360 vsl 15 128 0 1 0 0 empty empty empty 0 -9 0 10 #fcfcfc
#000000 #000000 0 1;
#X obj 742 326 r vol;
#X obj 198 178 *~ 2;
#X msg 86 123 \; pd dsp 1, f 10;
#X obj 86 65 loadbang;
#X obj 86 97 delay 100;
#X obj 485 134 *~ 0.3;
#X obj 586 133 *~ 0.3;
#N canvas 0 50 450 250 (subpatch) 0;
#X text 0 0 plugdatainfo <?xml version="1.0" encoding="UTF-8"?> <PlugDataInfo/>
;
#X coords 0 1 100 -1 1 1 1;
#X restore 0 0 graph;
#X connect 1 0 23 0;
#X connect 2 0 22 0;
#X connect 3 0 18 0;
#X connect 3 1 18 0;
#X connect 6 0 0 0;
#X connect 7 0 0 1;
#X connect 8 0 10 0;
#X connect 9 0 11 0;
#X connect 10 0 9 0;
#X connect 10 1 9 1;
#X connect 11 0 12 0;
#X connect 12 0 7 1;
#X connect 12 0 6 1;
#X connect 13 0 6 0;
#X connect 14 0 7 0;
#X connect 17 0 16 0;
#X connect 18 0 4 0;
#X connect 18 0 5 0;
#X connect 20 0 21 0;
#X connect 21 0 19 0;
#X connect 22 0 13 0;
#X connect 23 0 14 0;
#X restore 475 41 pd audioIO;
#N canvas 0 183 1276 690 MIDI 1;
#X obj 51 227 spigot 1;
#X obj 139 183 r midiInGate;
#X obj 51 257 t f b;
#X obj 51 295 / 127;
#X obj 51 317 s knob1;
#X obj 103 290 s knob1Override;
#X obj 51 188 change;
#X obj 250 223 spigot 1;
#X obj 338 179 r midiInGate;
#X obj 250 253 t f b;
#X obj 250 291 / 127;
#X obj 250 184 change;
#X obj 444 219 spigot 1;
#X obj 532 175 r midiInGate;
#X obj 444 249 t f b;
#X obj 444 287 / 127;
#X obj 444 180 change;
#X obj 642 218 spigot 1;
#X obj 730 174 r midiInGate;
#X obj 642 248 t f b;
#X obj 642 286 / 127;
#X obj 642 179 change;
#X obj 250 313 s knob2;
#X obj 444 309 s knob3;
#X obj 642 308 s knob4;
#X obj 302 286 s knob2Override;
#X obj 497 282 s knob3Override;
#X obj 694 280 s knob4Override;
#X obj 884 170 notein;
#X obj 884 206 pack;
#X obj 884 238 spigot 1;
#X obj 958 186 r midiInGate;
#X obj 853 413 s notes;
#X text 670 101 MIDI in;
#X text 570 473 MIDI out;
#X obj 444 153 ctlin 23 1;
#X obj 642 152 ctlin 24 1;
#X obj 51 160 ctlin 21 1;
#X obj 250 156 ctlin 22 1;
#X obj 1092 210 spigot 1;
#X obj 1180 166 r midiInGate;
#X obj 1092 151 ctlin 25 1;
#X obj 1092 298 s aux;
#X obj 1285 204 spigot 1;
#X obj 1373 160 r midiInGate;
#X obj 1285 153 ctlin 64 1;
#X obj 1285 301 s fs;
#X obj 1285 234 >= 64;
#X obj 1285 266 change;
#X obj 1092 239 >= 64;
#X obj 1092 271 change;
#X obj 1478 214 spigot 1;
#X obj 1566 170 r midiInGate;
#X obj 1478 244 t f b;
#X obj 1478 282 / 127;
#X obj 1478 175 change;
#X obj 1478 148 ctlin 26 1;
#X obj 1530 277 s expOverride;
#X obj 1478 304 s exp;
#X text 709 472 the 'raw' stuff comes directly from built in controls
;
#X text 553 23 This patch provides the default MIDI behavior. All MIDI
output and input can be suppressed by sending a 0 to midiOutGate and
midiInGate respectively.;
#X text 489 536 This desktop mother patch doesn't currently send any
MIDI;
#X obj 944 361 s notes_raw;
#X obj 716 343 r keybd_notes;
#N canvas 0 50 450 250 (subpatch) 0;
#X text 0 0 plugdatainfo <?xml version="1.0" encoding="UTF-8"?> <PlugDataInfo/>
;
#X coords 0 1 100 -1 1 1 1;
#X restore 0 0 graph;
#X connect 0 0 2 0;
#X connect 1 0 0 1;
#X connect 2 0 3 0;
#X connect 2 1 5 0;
#X connect 3 0 4 0;
#X connect 6 0 0 0;
#X connect 7 0 9 0;
#X connect 8 0 7 1;
#X connect 9 0 10 0;
#X connect 9 1 25 0;
#X connect 10 0 22 0;
#X connect 11 0 7 0;
#X connect 12 0 14 0;
#X connect 13 0 12 1;
#X connect 14 0 15 0;
#X connect 14 1 26 0;
#X connect 15 0 23 0;
#X connect 16 0 12 0;
#X connect 17 0 19 0;
#X connect 18 0 17 1;
#X connect 19 0 20 0;
#X connect 19 1 27 0;
#X connect 20 0 24 0;
#X connect 21 0 17 0;
#X connect 28 0 29 0;
#X connect 28 1 29 1;
#X connect 29 0 30 0;
#X connect 30 0 32 0;
#X connect 30 0 62 0;
#X connect 31 0 30 1;
#X connect 35 0 16 0;
#X connect 36 0 21 0;
#X connect 37 0 6 0;
#X connect 38 0 11 0;
#X connect 39 0 49 0;
#X connect 40 0 39 1;
#X connect 41 0 39 0;
#X connect 43 0 47 0;
#X connect 44 0 43 1;
#X connect 45 0 43 0;
#X connect 47 0 48 0;
#X connect 48 0 46 0;
#X connect 49 0 50 0;
#X connect 50 0 42 0;
#X connect 51 0 53 0;
#X connect 52 0 51 1;
#X connect 53 0 54 0;
#X connect 53 1 57 0;
#X connect 54 0 58 0;
#X connect 55 0 51 0;
#X connect 56 0 55 0;
#X connect 63 0 32 0;
#X restore 476 68 pd MIDI;
#X text 3 151 aux;
#X obj 167 23 vsl 15 96 0 1 0 0 vol vol empty 0 -9 0 10 #fcfcfc #000000
#000000 0 1;
#X obj 239 61 bng 15 250 50 0 send-all-vals empty empty 17 7 0 10 #fcfcfc
#000000 #000000;
#X obj 6 129 cnv 17 17 17 empty empty empty 20 12 0 14 #202020 #fcfcfc
0;
#N canvas 92 50 681 716 desktop-stuff 1;
#X obj 32 33 r send-all-vals;
#X obj 84 96 s knob2;
#X obj 44 124 s knob3;
#X obj 99 122 s knob4;
#X obj 116 162 s exp;
#X obj 565 45 r screenLine4;
#X obj 67 240 r led;
#X msg 69 429 \; led-canvas color \$1 0;
#X obj 68 335 sel 0 1 2 3 4 5 6 7, f 63;
#X msg 68 365 22;
#X msg 111 365 13;
#X msg 155 366 15;
#X msg 198 364 16;
#X msg 250 367 17;
#X msg 306 367 18;
#X msg 351 376 19;
#X obj 67 284 % 8;
#X msg 396 374 0;
#X obj 202 257 loadbang;
#X msg 202 279 0;
#X obj 5 55 bng 15 250 50 0 empty empty empty 17 7 0 10 #fcfcfc #000000
#000000;
#N canvas 0 50 1362 691 f 0;
#X obj 63 177 s print1;
#X obj 63 55 r screenLine1;
#X obj 257 67 r screenLine2;
#X obj 437 51 r screenLine3;
#X obj 703 65 r screenLine4;
#X obj 573 45 r screenLine5;
#X obj 257 197 s print2;
#X obj 407 172 s print3;
#X obj 704 183 s print4;
#X obj 584 166 s print5;
#X msg 362 51 set _;
#X obj 357 29 loadbang;
#X msg 413 136 set \$1;
#N canvas 579 238 450 300 concat2 0;
#X obj 198 101 list length;
#X obj 210 170 == 4;
#X obj 100 272 spigot;
#X obj 84 99 t l l;
#X obj 14 191 spigot;
#X obj 58 170 == 1;
#X obj 59 191 spigot;
#X obj 91 168 == 2;
#X obj 140 196 spigot;
#X obj 220 202 == 3;
#X obj 174 248 spigot;
#X obj 308 215 == 5;
#X obj 87 74 list;
#X msg 13 216 \$1;
#X msg 58 216 \$1_\$2;
#X msg 139 221 \$1_\$2_\$3;
#X msg 224 275 \$1_\$2_\$3_\$4_\$5;
#X msg 113 294 \$1_\$2_\$3_\$4;
#X obj 84 327 list;
#X obj 108 24 inlet;
#X obj 81 368 outlet;
#X connect 0 0 1 0;
#X connect 0 0 5 0;
#X connect 0 0 7 0;
#X connect 0 0 9 0;
#X connect 0 0 11 0;
#X connect 1 0 2 1;
#X connect 2 0 17 0;
#X connect 3 0 2 0;
#X connect 3 0 4 0;
#X connect 3 0 6 0;
#X connect 3 0 8 0;
#X connect 3 0 10 0;
#X connect 3 1 0 0;
#X connect 4 0 13 0;
#X connect 5 0 4 1;
#X connect 6 0 14 0;
#X connect 7 0 6 1;
#X connect 8 0 15 0;
#X connect 9 0 8 1;
#X connect 10 0 16 0;
#X connect 11 0 10 1;
#X connect 12 0 3 0;
#X connect 13 0 18 0;
#X connect 14 0 18 0;
#X connect 15 0 18 0;
#X connect 16 0 18 0;
#X connect 17 0 18 0;
#X connect 18 0 20 0;
#X connect 19 0 12 0;
#X restore 409 108 pd concat2;
#X msg 62 127 set \$1;
#N canvas 579 238 450 300 concat2 0;
#X obj 198 101 list length;
#X obj 210 170 == 4;
#X obj 100 272 spigot;
#X obj 84 99 t l l;
#X obj 14 191 spigot;
#X obj 58 170 == 1;
#X obj 59 191 spigot;
#X obj 91 168 == 2;
#X obj 140 196 spigot;
#X obj 220 202 == 3;
#X obj 174 248 spigot;
#X obj 308 215 == 5;
#X obj 87 74 list;
#X msg 13 216 \$1;
#X msg 58 216 \$1_\$2;
#X msg 139 221 \$1_\$2_\$3;
#X msg 224 275 \$1_\$2_\$3_\$4_\$5;
#X msg 113 294 \$1_\$2_\$3_\$4;
#X obj 84 327 list;
#X obj 108 24 inlet;
#X obj 81 368 outlet;
#X connect 0 0 1 0;
#X connect 0 0 5 0;
#X connect 0 0 7 0;
#X connect 0 0 9 0;
#X connect 0 0 11 0;
#X connect 1 0 2 1;
#X connect 2 0 17 0;
#X connect 3 0 2 0;
#X connect 3 0 4 0;
#X connect 3 0 6 0;
#X connect 3 0 8 0;
#X connect 3 0 10 0;
#X connect 3 1 0 0;
#X connect 4 0 13 0;
#X connect 5 0 4 1;
#X connect 6 0 14 0;
#X connect 7 0 6 1;
#X connect 8 0 15 0;
#X connect 9 0 8 1;
#X connect 10 0 16 0;
#X connect 11 0 10 1;
#X connect 12 0 3 0;
#X connect 13 0 18 0;
#X connect 14 0 18 0;
#X connect 15 0 18 0;
#X connect 16 0 18 0;
#X connect 17 0 18 0;
#X connect 18 0 20 0;
#X connect 19 0 12 0;
#X restore 68 98 pd concat2;
#X msg 254 135 set \$1;
#N canvas 579 238 450 300 concat2 0;
#X obj 198 101 list length;
#X obj 210 170 == 4;
#X obj 100 272 spigot;
#X obj 84 99 t l l;
#X obj 14 191 spigot;
#X obj 58 170 == 1;
#X obj 59 191 spigot;
#X obj 91 168 == 2;
#X obj 140 196 spigot;
#X obj 220 202 == 3;
#X obj 174 248 spigot;
#X obj 308 215 == 5;
#X obj 87 74 list;
#X msg 13 216 \$1;
#X msg 58 216 \$1_\$2;
#X msg 139 221 \$1_\$2_\$3;
#X msg 224 275 \$1_\$2_\$3_\$4_\$5;
#X msg 113 294 \$1_\$2_\$3_\$4;
#X obj 84 327 list;
#X obj 108 24 inlet;
#X obj 81 368 outlet;
#X connect 0 0 1 0;
#X connect 0 0 5 0;
#X connect 0 0 7 0;
#X connect 0 0 9 0;
#X connect 0 0 11 0;
#X connect 1 0 2 1;
#X connect 2 0 17 0;
#X connect 3 0 2 0;
#X connect 3 0 4 0;
#X connect 3 0 6 0;
#X connect 3 0 8 0;
#X connect 3 0 10 0;
#X connect 3 1 0 0;
#X connect 4 0 13 0;
#X connect 5 0 4 1;
#X connect 6 0 14 0;
#X connect 7 0 6 1;
#X connect 8 0 15 0;
#X connect 9 0 8 1;
#X connect 10 0 16 0;
#X connect 11 0 10 1;
#X connect 12 0 3 0;
#X connect 13 0 18 0;
#X connect 14 0 18 0;
#X connect 15 0 18 0;
#X connect 16 0 18 0;
#X connect 17 0 18 0;
#X connect 18 0 20 0;
#X connect 19 0 12 0;
#X restore 250 107 pd concat2;
#X msg 579 130 set \$1;
#N canvas 579 238 450 300 concat2 0;
#X obj 198 101 list length;
#X obj 210 170 == 4;
#X obj 100 272 spigot;
#X obj 84 99 t l l;
#X obj 14 191 spigot;
#X obj 58 170 == 1;
#X obj 59 191 spigot;
#X obj 91 168 == 2;
#X obj 140 196 spigot;
#X obj 220 202 == 3;
#X obj 174 248 spigot;
#X obj 308 215 == 5;
#X obj 87 74 list;
#X msg 13 216 \$1;
#X msg 58 216 \$1_\$2;
#X msg 139 221 \$1_\$2_\$3;
#X msg 224 275 \$1_\$2_\$3_\$4_\$5;
#X msg 113 294 \$1_\$2_\$3_\$4;
#X obj 84 327 list;
#X obj 108 24 inlet;
#X obj 81 368 outlet;
#X connect 0 0 1 0;
#X connect 0 0 5 0;
#X connect 0 0 7 0;
#X connect 0 0 9 0;
#X connect 0 0 11 0;
#X connect 1 0 2 1;
#X connect 2 0 17 0;
#X connect 3 0 2 0;
#X connect 3 0 4 0;
#X connect 3 0 6 0;
#X connect 3 0 8 0;
#X connect 3 0 10 0;
#X connect 3 1 0 0;
#X connect 4 0 13 0;
#X connect 5 0 4 1;
#X connect 6 0 14 0;
#X connect 7 0 6 1;
#X connect 8 0 15 0;
#X connect 9 0 8 1;
#X connect 10 0 16 0;
#X connect 11 0 10 1;
#X connect 12 0 3 0;
#X connect 13 0 18 0;
#X connect 14 0 18 0;
#X connect 15 0 18 0;
#X connect 16 0 18 0;
#X connect 17 0 18 0;
#X connect 18 0 20 0;
#X connect 19 0 12 0;
#X restore 575 102 pd concat2;
#X msg 714 134 set \$1;
#N canvas 579 238 450 300 concat2 0;
#X obj 198 101 list length;
#X obj 210 170 == 4;
#X obj 100 272 spigot;
#X obj 84 99 t l l;
#X obj 14 191 spigot;
#X obj 58 170 == 1;
#X obj 59 191 spigot;
#X obj 91 168 == 2;
#X obj 140 196 spigot;
#X obj 220 202 == 3;
#X obj 174 248 spigot;
#X obj 308 215 == 5;
#X obj 87 74 list;
#X msg 13 216 \$1;
#X msg 58 216 \$1_\$2;
#X msg 139 221 \$1_\$2_\$3;
#X msg 224 275 \$1_\$2_\$3_\$4_\$5;
#X msg 113 294 \$1_\$2_\$3_\$4;
#X obj 84 327 list;
#X obj 108 24 inlet;
#X obj 81 368 outlet;
#X connect 0 0 1 0;
#X connect 0 0 5 0;
#X connect 0 0 7 0;
#X connect 0 0 9 0;
#X connect 0 0 11 0;
#X connect 1 0 2 1;
#X connect 2 0 17 0;
#X connect 3 0 2 0;
#X connect 3 0 4 0;
#X connect 3 0 6 0;
#X connect 3 0 8 0;
#X connect 3 0 10 0;
#X connect 3 1 0 0;
#X connect 4 0 13 0;
#X connect 5 0 4 1;
#X connect 6 0 14 0;
#X connect 7 0 6 1;
#X connect 8 0 15 0;
#X connect 9 0 8 1;
#X connect 10 0 16 0;
#X connect 11 0 10 1;
#X connect 12 0 3 0;
#X connect 13 0 18 0;
#X connect 14 0 18 0;
#X connect 15 0 18 0;
#X connect 16 0 18 0;
#X connect 17 0 18 0;
#X connect 18 0 20 0;
#X connect 19 0 12 0;
#X restore 661 110 pd concat2;
#X obj 887 32 r screenLineSeq;
#N canvas 579 238 450 300 concat2 0;
#X obj 198 101 list length;
#X obj 210 170 == 4;
#X obj 100 272 spigot;
#X obj 84 99 t l l;
#X obj 14 191 spigot;
#X obj 58 170 == 1;
#X obj 59 191 spigot;
#X obj 91 168 == 2;
#X obj 140 196 spigot;
#X obj 220 202 == 3;
#X obj 174 248 spigot;
#X obj 308 215 == 5;
#X obj 87 74 list;
#X msg 13 216 \$1;
#X msg 58 216 \$1_\$2;
#X msg 139 221 \$1_\$2_\$3;
#X msg 224 275 \$1_\$2_\$3_\$4_\$5;
#X msg 113 294 \$1_\$2_\$3_\$4;
#X obj 84 327 list;
#X obj 108 24 inlet;
#X obj 81 368 outlet;
#X connect 0 0 1 0;
#X connect 0 0 5 0;
#X connect 0 0 7 0;
#X connect 0 0 9 0;
#X connect 0 0 11 0;
#X connect 1 0 2 1;
#X connect 2 0 17 0;
#X connect 3 0 2 0;
#X connect 3 0 4 0;
#X connect 3 0 6 0;
#X connect 3 0 8 0;
#X connect 3 0 10 0;
#X connect 3 1 0 0;
#X connect 4 0 13 0;
#X connect 5 0 4 1;
#X connect 6 0 14 0;
#X connect 7 0 6 1;
#X connect 8 0 15 0;
#X connect 9 0 8 1;
#X connect 10 0 16 0;
#X connect 11 0 10 1;
#X connect 12 0 3 0;
#X connect 13 0 18 0;
#X connect 14 0 18 0;
#X connect 15 0 18 0;
#X connect 16 0 18 0;
#X connect 17 0 18 0;
#X connect 18 0 20 0;
#X connect 19 0 12 0;
#X restore 890 73 pd concat2;
#X msg 909 137 set \$1;
#X obj 899 187 s printSeq;
#X connect 1 0 15 0;
#X connect 2 0 17 0;
#X connect 3 0 13 0;
#X connect 4 0 21 0;
#X connect 5 0 19 0;
#X connect 10 0 9 0;
#X connect 10 0 8 0;
#X connect 10 0 7 0;
#X connect 10 0 6 0;
#X connect 10 0 0 0;
#X connect 10 0 25 0;
#X connect 11 0 10 0;
#X connect 12 0 7 0;
#X connect 13 0 12 0;
#X connect 14 0 0 0;
#X connect 15 0 14 0;
#X connect 16 0 6 0;
#X connect 17 0 16 0;
#X connect 18 0 9 0;
#X connect 19 0 18 0;
#X connect 20 0 8 0;
#X connect 21 0 20 0;
#X connect 22 0 23 0;
#X connect 23 0 24 0;
#X connect 24 0 25 0;
#X restore 453 264 pd f;
#X msg 511 428 \; pd quit, f 10;
#X obj 475 315 + 1;
#X obj 491 280 float 0;
#X obj 490 349 nbx 5 14 -1e+37 1e+37 0 0 empty empty empty 0 -8 0 10
#fcfcfc #000000 #000000 0 256;
#X obj 550 240 r quittimer;
#X floatatom 571 288 5 -3.40282e+38 3.40282e+38 0 - - - 0;
#X obj 571 307 s quitset;
#X obj 551 260 delay 500;
#X obj 551 391 == 4, f 5;
#X obj 499 405 spigot;
#X obj 504 374 t b f;
#N canvas 0 50 1276 691 arrowkeys 0;
#X obj 725 31 keyname, f 8;
#X obj 102 117 sel Up;
#X msg 92 154 1;
#X msg 145 159 0;
#X obj 75 205 spigot;
#X obj 83 251 change;
#X msg 186 152 1;
#X msg 239 157 0;
#X obj 169 203 spigot;
#X obj 177 249 change;
#X msg 283 155 1;
#X msg 336 160 0;
#X obj 266 206 spigot;
#X obj 274 252 change;
#X msg 377 153 1;
#X msg 430 158 0;
#X obj 360 204 spigot;
#X obj 368 250 change;
#X obj 172 312 nbx 5 14 -1e+37 1e+37 0 0 empty empty empty 0 -8 0 10
#fcfcfc #000000 #000000 0 256;
#X obj 82 312 nbx 5 14 -1e+37 1e+37 0 0 empty empty empty 0 -8 0 10
#fcfcfc #000000 #000000 0 256;
#X obj 356 323 nbx 5 14 -1e+37 1e+37 0 0 empty empty empty 0 -8 0 10
#fcfcfc #000000 #000000 0 256;
#X obj 266 323 nbx 5 14 -1e+37 1e+37 0 0 empty empty empty 0 -8 0 10
#fcfcfc #000000 #000000 0 256;
#X obj 195 115 sel Down;
#X obj 293 118 sel Left;
#X obj 387 117 sel Right;
#X obj 49 360 s uparrow;
#X obj 123 364 s downarrow;
#X obj 245 363 s leftarrow;
#X obj 343 367 s rightarrow;
#X msg 537 168 1;
#X msg 590 173 0;
#X obj 520 219 spigot;
#X obj 528 265 change;
#X obj 516 338 nbx 5 14 -1e+37 1e+37 0 0 empty empty empty 0 -8 0 10
#fcfcfc #000000 #000000 0 256;
#X obj 534 112 sel Prior;
#X msg 719 178 1;
#X msg 772 183 0;
#X obj 702 229 spigot;
#X obj 710 275 change;
#X obj 698 348 nbx 5 14 -1e+37 1e+37 0 0 empty empty empty 0 -8 0 10
#fcfcfc #000000 #000000 0 256;
#X obj 716 122 sel Next;
#X obj 519 362 s pageup;
#X obj 691 393 s pagedown;
#X msg 855 190 1;
#X msg 908 195 0;
#X obj 838 241 spigot;
#X obj 846 287 change;
#X obj 834 360 nbx 5 14 -1e+37 1e+37 0 0 empty empty empty 0 -8 0 10
#fcfcfc #000000 #000000 0 256;
#X msg 985 189 1;
#X msg 1038 194 0;
#X obj 968 240 spigot;
#X obj 976 286 change;
#X obj 964 359 nbx 5 14 -1e+37 1e+37 0 0 empty empty empty 0 -8 0 10
#fcfcfc #000000 #000000 0 256;
#X obj 852 134 sel Home;
#X obj 982 131 sel End;
#X obj 827 405 s home;
#X obj 957 404 s end;
#X connect 0 0 4 0;
#X connect 0 0 8 0;
#X connect 0 0 12 0;
#X connect 0 0 16 0;
#X connect 0 0 31 0;
#X connect 0 0 37 0;
#X connect 0 0 45 0;
#X connect 0 0 50 0;
#X connect 0 1 1 0;
#X connect 0 1 22 0;
#X connect 0 1 23 0;
#X connect 0 1 24 0;
#X connect 0 1 34 0;
#X connect 0 1 40 0;
#X connect 0 1 53 0;
#X connect 0 1 54 0;
#X connect 1 0 2 0;
#X connect 1 1 3 0;
#X connect 2 0 4 1;
#X connect 3 0 4 1;
#X connect 4 0 5 0;
#X connect 5 0 19 0;
#X connect 6 0 8 1;
#X connect 7 0 8 1;
#X connect 8 0 9 0;
#X connect 9 0 18 0;
#X connect 10 0 12 1;
#X connect 11 0 12 1;
#X connect 12 0 13 0;
#X connect 13 0 21 0;
#X connect 14 0 16 1;
#X connect 15 0 16 1;
#X connect 16 0 17 0;
#X connect 17 0 20 0;
#X connect 18 0 26 0;
#X connect 19 0 25 0;
#X connect 20 0 28 0;
#X connect 21 0 27 0;
#X connect 22 0 6 0;
#X connect 22 1 7 0;
#X connect 23 0 10 0;
#X connect 23 1 11 0;
#X connect 24 0 14 0;
#X connect 24 1 15 0;
#X connect 29 0 31 1;
#X connect 30 0 31 1;
#X connect 31 0 32 0;
#X connect 32 0 33 0;
#X connect 33 0 41 0;
#X connect 34 0 29 0;
#X connect 34 1 30 0;
#X connect 35 0 37 1;
#X connect 36 0 37 1;
#X connect 37 0 38 0;
#X connect 38 0 39 0;
#X connect 39 0 42 0;
#X connect 40 0 35 0;
#X connect 40 1 36 0;
#X connect 43 0 45 1;
#X connect 44 0 45 1;
#X connect 45 0 46 0;
#X connect 46 0 47 0;
#X connect 47 0 55 0;
#X connect 48 0 50 1;
#X connect 49 0 50 1;
#X connect 50 0 51 0;
#X connect 51 0 52 0;
#X connect 52 0 56 0;
#X connect 53 0 43 0;
#X connect 53 1 44 0;
#X connect 54 0 48 0;
#X connect 54 1 49 0;
#X restore 347 213 pd arrowkeys;
#N canvas 0 50 1276 714 arrowparam 0;
#X obj 447 44 r leftarrow;
#X obj 540 47 r rightarrow;
#X floatatom 567 79 5 0 0 0 - - - 0;
#X obj 457 137 float;
#X obj 507 235 % 6;
#X obj 421 89 sel 1;
#X obj 470 164 - 1;
#X obj 500 202 + 6;
#X obj 563 148 float;
#X obj 563 173 + 1;
#X obj 477 92 sel 1;
#X obj 601 126 s sel_param;
#X obj 668 81 r sel_param;
#X obj 682 116 == 0;
#X obj 680 143 tgl 15 0 empty empty empty 17 7 0 10 #fcfcfc #000000
#000000 0 1;
#X obj 748 143 tgl 15 0 empty empty empty 17 7 0 10 #fcfcfc #000000
#000000 0 1;
#X obj 749 117 == 1;
#X obj 784 143 tgl 15 0 empty empty empty 17 7 0 10 #fcfcfc #000000
#000000 0 1;
#X obj 824 144 tgl 15 0 empty empty empty 17 7 0 10 #fcfcfc #000000
#000000 0 1;
#X obj 866 146 tgl 15 0 empty empty empty 17 7 0 10 #fcfcfc #000000
#000000 0 1;
#X obj 906 147 tgl 15 0 empty empty empty 17 7 0 10 #fcfcfc #000000
#000000 0 1;
#X obj 786 117 == 2;
#X obj 825 118 == 3;
#X obj 174 341 r sel_param;
#X obj 176 371 == 0;
#X obj 174 398 tgl 15 0 empty empty empty 17 7 0 10 #fcfcfc #000000
#000000 0 1;
#X floatatom 156 458 5 0 0 0 - - - 0;
#X obj 128 585 s knob1;
#X obj 976 55 r uparrow;
#X obj 1131 59 r downarrow;
#X obj 957 81 sel 1;
#X obj 1134 84 sel 1;
#X obj 113 476 +;
#X obj 110 503 max 0;
#X obj 117 526 min 1;
#X obj 110 428 *;
#X msg 1053 116 stop;
#X obj 977 116 delay 500;
#X obj 1009 85 sel 0;
#X msg 1200 121 stop;
#X obj 1139 113 delay 500;
#X obj 1189 86 sel 0;
#X obj 1018 154 metro 25;
#X obj 1161 145 metro 25;
#X obj 67 379 r paramchange;
#X obj 1048 232 s paramchange;
#X obj 380 368 r sel_param;
#X obj 380 425 tgl 15 0 empty empty empty 17 7 0 10 #fcfcfc #000000
#000000 0 1;
#X floatatom 362 485 5 0 0 0 - - - 0;
#X obj 319 503 +;
#X obj 316 530 max 0;
#X obj 323 553 min 1;
#X obj 316 455 *;
#X obj 273 406 r paramchange;
#X obj 559 372 r sel_param;
#X obj 559 429 tgl 15 0 empty empty empty 17 7 0 10 #fcfcfc #000000
#000000 0 1;
#X floatatom 541 489 5 0 0 0 - - - 0;
#X obj 498 507 +;
#X obj 495 534 max 0;
#X obj 502 557 min 1;
#X obj 495 459 *;
#X obj 452 410 r paramchange;
#X obj 781 375 r sel_param;
#X obj 781 432 tgl 15 0 empty empty empty 17 7 0 10 #fcfcfc #000000
#000000 0 1;
#X floatatom 763 492 5 0 0 0 - - - 0;
#X obj 720 510 +;
#X obj 717 537 max 0;
#X obj 724 560 min 1;
#X obj 717 462 *;
#X obj 674 413 r paramchange;
#X obj 987 402 r sel_param;
#X obj 987 459 tgl 15 0 empty empty empty 17 7 0 10 #fcfcfc #000000
#000000 0 1;
#X floatatom 969 519 5 0 0 0 - - - 0;
#X obj 926 537 +;
#X obj 923 564 max 0;
#X obj 930 587 min 1;
#X obj 923 489 *;
#X obj 880 440 r paramchange;
#X obj 1166 406 r sel_param;
#X obj 1166 463 tgl 15 0 empty empty empty 17 7 0 10 #fcfcfc #000000
#000000 0 1;
#X floatatom 1148 523 5 0 0 0 - - - 0;
#X obj 1105 541 +;
#X obj 1102 568 max 0;
#X obj 1109 591 min 1;
#X obj 1102 493 *;
#X obj 1059 444 r paramchange;
#X obj 382 398 == 1;
#X obj 561 402 == 2;
#X obj 783 405 == 3;
#X obj 159 429 r knob1;
#X obj 365 456 r knob2;
#X obj 544 460 r knob3;
#X obj 766 463 r knob4;
#X obj 972 490 r exp;
#X obj 1151 494 r vol;
#X obj 325 580 s knob2;
#X obj 503 584 s knob3;
#X obj 722 601 s knob4;
#X obj 932 614 s exp;
#X obj 1103 620 s vol;
#X obj 651 236 s knob2_sel;
#X obj 799 249 s knob4_sel;
#X obj 711 270 s knob3_sel;
#X obj 925 234 s vol_sel;
#X obj 869 261 s exp_sel;
#X obj 553 294 s knob1_sel;
#X obj 989 432 == 5;
#X obj 1168 436 == 4;
#X obj 867 120 == 5;
#X obj 908 121 == 4;
#X obj 71 292 s knob1;
#X obj 129 293 s knob2;
#X obj 187 294 s knob3;
#X obj 253 295 s knob4;
#X obj 314 294 s exp;
#X obj 369 296 s vol;
#X obj 189 208 loadbang;
#X msg 114 242 0.5;
#X msg 114 242;
#X msg 277 241 0.8;
#X msg 231 251 0.5;
#X msg 1016 192 0.0078125;
#X msg 1124 186 -0.0078125;
#X connect 0 0 5 0;
#X connect 1 0 10 0;
#X connect 2 0 3 1;
#X connect 2 0 8 1;
#X connect 2 0 11 0;
#X connect 3 0 6 0;
#X connect 4 0 2 0;
#X connect 5 0 3 0;
#X connect 6 0 7 0;
#X connect 7 0 4 0;
#X connect 8 0 9 0;
#X connect 9 0 7 0;
#X connect 10 0 8 0;
#X connect 12 0 13 0;
#X connect 12 0 16 0;
#X connect 12 0 21 0;
#X connect 12 0 22 0;
#X connect 12 0 108 0;
#X connect 12 0 109 0;
#X connect 13 0 14 0;
#X connect 14 0 105 0;
#X connect 15 0 100 0;
#X connect 16 0 15 0;
#X connect 17 0 102 0;
#X connect 18 0 101 0;
#X connect 19 0 104 0;
#X connect 20 0 103 0;
#X connect 21 0 17 0;
#X connect 22 0 18 0;
#X connect 23 0 24 0;
#X connect 24 0 25 0;
#X connect 25 0 35 1;
#X connect 26 0 32 1;
#X connect 28 0 30 0;
#X connect 28 0 38 0;
#X connect 29 0 31 0;
#X connect 29 0 41 0;
#X connect 30 0 121 0;
#X connect 30 0 37 0;
#X connect 31 0 40 0;
#X connect 31 0 122 0;
#X connect 32 0 33 0;
#X connect 33 0 34 0;
#X connect 34 0 27 0;
#X connect 35 0 32 0;
#X connect 36 0 42 0;
#X connect 36 0 37 0;
#X connect 37 0 42 0;
#X connect 38 0 36 0;
#X connect 39 0 43 0;
#X connect 39 0 40 0;
#X connect 40 0 43 0;
#X connect 41 0 39 0;
#X connect 42 0 121 0;
#X connect 43 0 122 0;
#X connect 44 0 35 0;
#X connect 46 0 86 0;
#X connect 47 0 52 1;
#X connect 48 0 49 1;
#X connect 49 0 50 0;
#X connect 50 0 51 0;
#X connect 51 0 95 0;
#X connect 52 0 49 0;
#X connect 53 0 52 0;
#X connect 54 0 87 0;
#X connect 55 0 60 1;
#X connect 56 0 57 1;
#X connect 57 0 58 0;
#X connect 58 0 59 0;
#X connect 59 0 96 0;
#X connect 60 0 57 0;
#X connect 61 0 60 0;
#X connect 62 0 88 0;
#X connect 63 0 68 1;
#X connect 64 0 65 1;
#X connect 65 0 66 0;
#X connect 66 0 67 0;
#X connect 67 0 97 0;
#X connect 68 0 65 0;
#X connect 69 0 68 0;
#X connect 70 0 106 0;
#X connect 71 0 76 1;
#X connect 72 0 73 1;
#X connect 73 0 74 0;
#X connect 74 0 75 0;
#X connect 75 0 98 0;
#X connect 76 0 73 0;
#X connect 77 0 76 0;
#X connect 78 0 107 0;
#X connect 79 0 84 1;
#X connect 80 0 81 1;
#X connect 81 0 82 0;
#X connect 82 0 83 0;
#X connect 83 0 99 0;
#X connect 84 0 81 0;
#X connect 85 0 84 0;
#X connect 86 0 47 0;
#X connect 87 0 55 0;
#X connect 88 0 63 0;
#X connect 89 0 26 0;
#X connect 90 0 48 0;
#X connect 91 0 56 0;
#X connect 92 0 64 0;
#X connect 93 0 72 0;
#X connect 94 0 80 0;
#X connect 106 0 71 0;
#X connect 107 0 79 0;
#X connect 108 0 19 0;
#X connect 109 0 20 0;
#X connect 116 0 119 0;
#X connect 116 0 120 0;
#X connect 116 0 117 0;
#X connect 117 0 110 0;
#X connect 117 0 111 0;
#X connect 117 0 112 0;
#X connect 117 0 113 0;
#X connect 119 0 115 0;
#X connect 120 0 114 0;
#X connect 121 0 45 0;
#X connect 122 0 45 0;
#X restore 364 267 pd arrowparam;
#X obj 250 275 delay 250;
#X obj 290 296 s send-all-vals;
#X obj 345 530 r encup;
#X obj 286 527 r encdown;
#X msg 383 566 1;
#X obj 331 602 s enc;
#X msg 212 575 0;
#X obj 410 541 r encbut_bang;
#X msg 437 585 1;
#X obj 493 575 bng 15 250 50 0 empty empty empty 17 7 0 10 #fcfcfc
#000000 #000000;
#X obj 473 606 s encbut;
#X obj 62 474 r encup_mother;
#X obj 63 518 t b b;
#X obj 108 537 t b b;
#X obj 110 509 r encdown_mother;
#X obj 124 562 s encdown;
#X obj 62 559 s encup;
#X obj 399 606 bng 15 250 50 0 empty empty empty 17 7 0 10 #fcfcfc
#000000 #000000;
#X obj 323 564 bng 15 250 50 0 empty empty empty 17 7 0 10 #fcfcfc
#000000 #000000;
#X obj 333 571 bng 15 250 50 0 empty empty empty 17 7 0 10 #fcfcfc
#000000 #000000;
#X obj 23 598 s encbut_bang;
#X obj 585 508 keyname;
#X obj 256 435 r home;
#X obj 383 466 r end;
#X obj 217 453 sel 1;
#X obj 216 480 sel 1;
#X obj 148 73 s send-all-vals;
#X obj 19 164 s knob1_bang;
#N canvas 0 50 450 250 (subpatch) 0;
#X text 0 0 plugdatainfo <?xml version="1.0" encoding="UTF-8"?> <PlugDataInfo/>
;
#X coords 0 1 100 -1 1 1 1;
#X restore 0 0 graph;
#X connect 0 0 1 0;
#X connect 0 0 2 0;
#X connect 0 0 3 0;
#X connect 0 0 4 0;
#X connect 0 0 62 0;
#X connect 6 0 16 0;
#X connect 8 0 9 0;
#X connect 8 1 10 0;
#X connect 8 2 11 0;
#X connect 8 3 12 0;
#X connect 8 4 13 0;
#X connect 8 5 14 0;
#X connect 8 6 15 0;
#X connect 8 7 17 0;
#X connect 9 0 7 0;
#X connect 10 0 7 0;
#X connect 11 0 7 0;
#X connect 12 0 7 0;
#X connect 13 0 7 0;
#X connect 14 0 7 0;
#X connect 15 0 7 0;
#X connect 16 0 8 0;
#X connect 17 0 7 0;
#X connect 18 0 19 0;
#X connect 18 0 35 0;
#X connect 19 0 8 0;
#X connect 20 0 62 0;
#X connect 23 0 24 1;
#X connect 23 0 25 0;
#X connect 24 0 23 0;
#X connect 25 0 32 0;
#X connect 26 0 29 0;
#X connect 26 0 24 0;
#X connect 27 0 28 0;
#X connect 27 0 24 1;
#X connect 29 0 27 0;
#X connect 30 0 31 1;
#X connect 31 0 22 0;
#X connect 32 0 31 0;
#X connect 32 1 30 0;
#X connect 35 0 36 0;
#X connect 37 0 39 0;
#X connect 37 0 53 0;
#X connect 38 0 41 0;
#X connect 39 0 40 0;
#X connect 41 0 40 0;
#X connect 42 0 43 0;
#X connect 42 0 44 0;
#X connect 42 0 52 0;
#X connect 43 0 45 0;
#X connect 46 0 47 0;
#X connect 47 0 55 0;
#X connect 47 1 51 0;
#X connect 48 0 55 0;
#X connect 48 1 50 0;
#X connect 49 0 48 0;
#X connect 57 0 59 0;
#X connect 58 0 60 0;
#X connect 59 0 48 0;
#X connect 60 0 47 0;
#X restore 475 112 pd desktop-stuff;
#X obj 7 130 cnv 15 15 15 empty led-canvas empty 20 12 0 14 #000000
#fcfcfc 0;
#X text 154 1 volume;
#X text 227 42 resend;
#X symbolatom 282 42 24 0 0 0 - print3 - 0;
#X symbolatom 282 9 24 0 0 0 - print1 - 0;
#X symbolatom 282 26 24 0 0 0 - print2 - 0;
#X symbolatom 282 79 24 0 0 0 - print5 - 0;
#X symbolatom 282 59 24 0 0 0 - print4 - 0;
#X text 232 111 foot;
#X text 203 1 exp;
#X obj 85 125 tgl 10 0 empty knob2_sel empty 17 7 0 10 #fcfcfc #000000
#000000 0 1;
#X obj 58 125 tgl 10 0 empty knob1_sel empty 17 7 0 10 #fcfcfc #000000
#000000 0 1;
#X obj 139 125 tgl 10 0 empty knob4_sel empty 17 7 0 10 #fcfcfc #000000
#000000 0 1;
#X obj 113 125 tgl 10 0 empty knob3_sel empty 17 7 0 10 #fcfcfc #000000
#000000 0 1;
#X obj 208 125 tgl 10 0 empty exp_sel empty 17 7 0 10 #fcfcfc #000000
#000000 0 1;
#X obj 167 125 tgl 10 0 empty vol_sel empty 17 7 0 10 #fcfcfc #000000
#000000 0 1;
#X obj 9 50 bng 15 250 50 0 encdown_mother empty empty 17 7 0 10 #fcfcfc
#000000 #000000;
#X obj 8 72 bng 15 250 50 0 encup_mother empty empty 17 7 0 10 #fcfcfc
#000000 #000000;
#X text 3 96 2.1 enc;
#N canvas 0 50 450 250 (subpatch) 0;
#X text 0 0 plugdatainfo <?xml version="1.0" encoding="UTF-8"?> <PlugDataInfo/>
;
#X coords 0 1 100 -1 1 1 1;
#X restore 0 0 graph;
#X obj 116 239 param 1;
#X connect 0 0 34 1;
